<svg width="34" height="36" viewBox="0 0 34 36" fill="none" xmlns="http://www.w3.org/2000/svg">
<path d="M26.1668 14.3333V10.6667C26.1668 5.60406 22.0628 1.5 17.0002 1.5C11.9376 1.5 7.8335 5.60406 7.8335 10.6667V14.3333M17.0002 22.5833V26.25M11.1335 34.5H22.8668C25.9471 34.5 27.4873 34.5 28.6638 33.9005C29.6987 33.3732 30.5401 32.5318 31.0674 31.4969C31.6668 30.3204 31.6668 28.7803 31.6668 25.7V23.1333C31.6668 20.053 31.6668 18.5129 31.0674 17.3364C30.5401 16.3015 29.6987 15.4601 28.6638 14.9328C27.4873 14.3333 25.9471 14.3333 22.8668 14.3333H11.1335C8.05321 14.3333 6.51306 14.3333 5.33655 14.9328C4.30166 15.4601 3.46026 16.3015 2.93296 17.3364C2.3335 18.5129 2.3335 20.053 2.3335 23.1333V25.7C2.3335 28.7803 2.3335 30.3204 2.93296 31.4969C3.46026 32.5318 4.30166 33.3732 5.33655 33.9005C6.51306 34.5 8.05321 34.5 11.1335 34.5Z" stroke="white" stroke-width="3" stroke-linecap="round" stroke-linejoin="round"/>
</svg>
