<svg width="36" height="30" viewBox="0 0 36 30" fill="none" xmlns="http://www.w3.org/2000/svg">
<path d="M8.04762 15H23.5M1.5 4L23.5 4M13.8095 26H23.5M30.8333 15C30.8333 16.0125 31.6541 16.8333 32.6667 16.8333C33.6792 16.8333 34.5 16.0125 34.5 15C34.5 13.9875 33.6792 13.1667 32.6667 13.1667C31.6541 13.1667 30.8333 13.9875 30.8333 15ZM30.8333 4C30.8333 5.01252 31.6541 5.83333 32.6667 5.83333C33.6792 5.83333 34.5 5.01252 34.5 4C34.5 2.98748 33.6792 2.16667 32.6667 2.16667C31.6541 2.16667 30.8333 2.98748 30.8333 4ZM30.8333 26C30.8333 27.0125 31.6541 27.8333 32.6667 27.8333C33.6792 27.8333 34.5 27.0125 34.5 26C34.5 24.9875 33.6792 24.1667 32.6667 24.1667C31.6541 24.1667 30.8333 24.9875 30.8333 26Z" stroke="white" stroke-width="3" stroke-linecap="round" stroke-linejoin="round"/>
</svg>
