<svg width="48" height="48" viewBox="0 0 48 48" fill="none" xmlns="http://www.w3.org/2000/svg">
<path d="M17.6952 17.4999C18.2046 16.0519 19.21 14.8308 20.5334 14.053C21.8568 13.2753 23.4128 12.991 24.9257 13.2505C26.4387 13.51 27.8109 14.2966 28.7995 15.4709C29.7881 16.6452 30.3291 18.1316 30.3268 19.6666C30.3268 23.9999 23.8268 26.1666 23.8268 26.1666M24.0002 34.8333H24.0218M45.6668 23.9999C45.6668 35.9661 35.9663 45.6666 24.0002 45.6666C12.034 45.6666 2.3335 35.9661 2.3335 23.9999C2.3335 12.0337 12.034 2.33325 24.0002 2.33325C35.9663 2.33325 45.6668 12.0337 45.6668 23.9999Z" stroke="white" stroke-width="3" stroke-linecap="round" stroke-linejoin="round"/>
</svg>
